<svg height="1024" viewBox="0 0 60 36" width="256" xmlns="http://www.w3.org/2000/svg"><g id="Page-1" fill="none" fill-rule="evenodd"><g id="060---Train-Carriage" fill-rule="nonzero"><rect id="Rectangle-path" fill="#7f8e94" height="6" rx="1" width="50" x="5" y="21"/><path id="Shape" d="m54 21h-3c.5522847 0 1 .4477153 1 1v4c0 .5522847-.4477153 1-1 1h3c.5522847 0 1-.4477153 1-1v-4c0-.5522847-.4477153-1-1-1z" fill="#545c60"/><circle id="Oval" cx="9" cy="31" fill="#607d8b" r="4"/><path id="Shape" d="m9 27c-.51468434.0021695-1.02407235.1040471-1.5.3 1.51101468.6085107 2.5007405 2.0740584 2.5007405 3.703s-.98972582 3.0944893-2.5007405 3.703c1.49641401.6077595 3.211506.2559465 4.3478056-.8918556s1.4708211-2.8663504.8480212-4.3565675c-.6227999-1.490217-2.0807039-2.4596648-3.6958268-2.4575769z" fill="#37474f"/><circle id="Oval" cx="21" cy="31" fill="#607d8b" r="4"/><path id="Shape" d="m21 27c-.5146843.0021695-1.0240724.1040471-1.5.3 1.5110147.6085107 2.5007405 2.0740584 2.5007405 3.703s-.9897258 3.0944893-2.5007405 3.703c1.496414.6077595 3.211506.2559465 4.3478056-.8918556s1.4708211-2.8663504.8480212-4.3565675c-.6227999-1.490217-2.0807039-2.4596648-3.6958268-2.4575769z" fill="#37474f"/><circle id="Oval" cx="39" cy="31" fill="#607d8b" r="4"/><path id="Shape" d="m39 27c-.5146843.0021695-1.0240724.1040471-1.5.3 1.5110147.6085107 2.5007405 2.0740584 2.5007405 3.703s-.9897258 3.0944893-2.5007405 3.703c1.496414.6077595 3.211506.2559465 4.3478056-.8918556s1.4708211-2.8663504.8480212-4.3565675c-.6227999-1.490217-2.0807039-2.4596648-3.6958268-2.4575769z" fill="#37474f"/><circle id="Oval" cx="51" cy="31" fill="#607d8b" r="4"/><path id="Shape" d="m51 27c-.5146843.0021695-1.0240724.1040471-1.5.3 1.5110147.6085107 2.5007405 2.0740584 2.5007405 3.703s-.9897258 3.0944893-2.5007405 3.703c1.496414.6077595 3.211506.2559465 4.3478056-.8918556s1.4708211-2.8663504.8480212-4.3565675c-.6227999-1.490217-2.0807039-2.4596648-3.6958268-2.4575769z" fill="#37474f"/><path id="Shape" d="m52 18c0 1.66-.9 3-2 3h-9v-6h9c1.1 0 2 1.34 2 3z" fill="#a0522d"/><path id="Shape" d="m50 15h-3c1.1 0 2 1.34 2 3s-.9 3-2 3h3c1.1 0 2-1.34 2-3s-.9-3-2-3z" fill="#783e22"/><path id="Shape" d="m19 15v6h-9c-1.1 0-2-1.34-2-3s.9-3 2-3z" fill="#a0522d"/><path id="Rectangle-path" d="m24 15h12v6h-12z" fill="#a0522d"/><path id="Rectangle-path" d="m33 15h3v6h-3z" fill="#783e22"/><path id="Shape" d="m19 9v6h-6c-1.1 0-2-1.34-2-3s.9-3 2-3z" fill="#91562d"/><path id="Shape" d="m49 12c0 1.66-.9 3-2 3h-6v-6h6c1.1 0 2 1.34 2 3z" fill="#91562d"/><path id="Shape" d="m47 9h-3c1.1 0 2 1.34 2 3s-.9 3-2 3h3c1.1 0 2-1.34 2-3s-.9-3-2-3z" fill="#6d4122"/><path id="Rectangle-path" d="m24 3h12v6h-12z" fill="#a0522d"/><path id="Rectangle-path" d="m33 3h3v6h-3z" fill="#783e22"/><path id="Shape" d="m19 3v6h-4c-1.1 0-2-1.34-2-3s.9-3 2-3z" fill="#a0522d"/><path id="Shape" d="m47 6c0 1.66-.9 3-2 3h-4v-6h4c1.1 0 2 1.34 2 3z" fill="#a0522d"/><path id="Shape" d="m45 3h-3c1.1 0 2 1.34 2 3s-.9 3-2 3h3c1.1 0 2-1.34 2-3s-.9-3-2-3z" fill="#783e22"/><path id="Shape" d="m24 3v18h-5v-18c.0032948-1.10320187.8967981-1.9967052 2-2h1c1.1032019.0032948 1.9967052.89679813 2 2z" fill="#ffdc00"/><path id="Rectangle-path" d="m24 9h12v6h-12z" fill="#91562d"/><path id="Rectangle-path" d="m33 9h3v6h-3z" fill="#6d4122"/><path id="Shape" d="m41 3v18h-5v-18c.0032948-1.10320187.8967981-1.9967052 2-2h1c1.1032019.0032948 1.9967052.89679813 2 2z" fill="#ffdc00"/><path id="Shape" d="m59 21c-.5522847 0-1 .4477153-1 1v1h-2v-1c0-1.1045695-.8954305-2-2-2h-1.4c.2673042-.6327284.4033853-1.3131337.4-2 0-2.243-1.317-4-3-4h-.4c.2673042-.6327284.4033853-1.3131337.4-2 0-1.984-1.032-3.582-2.434-3.926.2891301-.65304884.4370262-1.35981527.434-2.074 0-2.243-1.317-4-3-4h-3.184c-.4222546-1.19435086-1.5492146-1.99474861-2.816-2h-1c-1.2667854.00525139-2.3937454.80564914-2.816 2h-10.368c-.4222546-1.19435086-1.5492146-1.99474861-2.816-2h-1c-1.2667854.00525139-2.3937454.80564914-2.816 2h-3.184c-1.683 0-3 1.757-3 4-.0030262.71418473.1448699 1.42095116.434 2.074-1.402.344-2.434 1.942-2.434 3.926-.00338529.6868663.1326958 1.3672716.4 2h-.4c-1.683 0-3 1.757-3 4-.00180399.6872114.13598083 1.3676303.405 2h-1.405c-1.1045695 0-2 .8954305-2 2v1h-2v-1c0-.5522847-.44771525-1-1-1s-1 .4477153-1 1v4c0 .5522847.44771525 1 1 1s1-.4477153 1-1v-1h2v1c.00210482.7837757.46183237 1.4940861 1.176 1.817-1.50869134 1.7651184-1.57132309 4.3467992-.15 6.183h-4.026c-.55228475 0-1 .4477153-1 1s.44771525 1 1 1h58c.5522847 0 1-.4477153 1-1s-.4477153-1-1-1h-4.026c1.4213231-1.8362008 1.3586913-4.4178816-.15-6.183.7141676-.3229139 1.1738952-1.0332243 1.176-1.817v-1h2v1c0 .5522847.4477153 1 1 1s1-.4477153 1-1v-4c0-.5522847-.4477153-1-1-1zm-8-3c0 1.2-.6 2-1 2h-8v-4h8c.4 0 1 .8 1 2zm-4-4h-5v-4h5c.4 0 1 .8 1 2s-.6 2-1 2zm-1-8c0 1.2-.6 2-1 2h-3v-4h3c.4 0 1 .8 1 2zm-9-3c0-.55228475.4477153-1 1-1h1c.5522847 0 1 .44771525 1 1v17h-3zm-12 17v-4h10v4zm10-12h-10v-4h10zm0 2v4h-10v-4zm-15-7c0-.55228475.4477153-1 1-1h1c.5522847 0 1 .44771525 1 1v17h-3zm-5 1h3v4h-3c-.4 0-1-.8-1-2s.6-2 1-2zm-3 8c0-1.2.6-2 1-2h5v4h-5c-.4 0-1-.8-1-2zm-3 6c0-1.2.6-2 1-2h8v4h-8c-.4 0-1-.8-1-2zm-3 4h48v4h-48zm7.9 8c-.1542758-.7276558-.4704292-1.4112306-.925-2h4.052c-.4545708.5887694-.7707242 1.2723442-.925 2zm2.2 2c.1542758.7276558.4704292 1.4112306.925 2h-4.051c.4545708-.5887694.7707242-1.2723442.925-2zm2.083 0h2.817c.5522847 0 1-.4477153 1-1s-.4477153-1-1-1h-2.816c.4870363-1.3775467 1.8956662-2.2038721 3.3357331-1.9567957 1.4400668.2470764 2.492694 1.4956868 2.492694 2.9567957s-1.0526272 2.7097193-2.492694 2.9567957c-1.4400669.2470764-2.8486968-.579249-3.3357331-1.9567957zm6.79-4h10.053c-1.3676345 1.766197-1.3676345 4.233803 0 6h-10.052c1.3676345-1.766197 1.3676345-4.233803 0-6zm11.027 3c-.0027654-1.4594373 1.0474881-2.7080809 2.485822-2.9553873s2.8453257.5788398 3.330178 1.9553873h-2.816c-.5522847 0-1 .4477153-1 1s.4477153 1 1 1h2.816c-.4848523 1.3765475-1.8918441 2.2026937-3.330178 1.9553873s-2.4885874-1.49595-2.485822-2.9553873zm7.9 1h2.2c.1542758.7276558.4704292 1.4112306.925 2h-4.051c.4549277-.5886774.7714259-1.2722589.926-2zm0-2c-.1542758-.7276558-.4704292-1.4112306-.925-2h4.052c-.4545708.5887694-.7707242 1.2723442-.925 2zm-37.9 1c-.0027654-1.4594373 1.04748812-2.7080809 2.48582199-2.9553873 1.43833386-.2473064 2.84532571.5788398 3.33017801 1.9553873h-2.816c-.55228475 0-1 .4477153-1 1s.44771525 1 1 1h2.816c-.4848523 1.3765475-1.89184415 2.2026937-3.33017801 1.9553873-1.43833387-.2473064-2.48858739-1.49595-2.48582199-2.9553873zm42.184 1h2.816c.5522847 0 1-.4477153 1-1s-.4477153-1-1-1h-2.816c.4870363-1.3775467 1.8956662-2.2038721 3.3357331-1.9567957 1.4400668.2470764 2.492694 1.4956868 2.492694 2.9567957s-1.0526272 2.7097193-2.492694 2.9567957c-1.4400669.2470764-2.8486968-.579249-3.3357331-1.9567957z" fill="#000"/></g></g></svg>